<svg width="15" height="15" viewBox="0 0 15 15" fill="none" xmlns="http://www.w3.org/2000/svg">
<path fill-rule="evenodd" clip-rule="evenodd" d="M10.8333 3.86111H7.72222V5.41667H10.8333V3.86111ZM10.8333 6.19444H7.72222V6.97222H10.8333V6.19444ZM6.94444 3.86111H4.61111V6.97222H6.94444V3.86111ZM6.94444 8.52778H10.8333V7.75H6.94444V8.52778ZM9.27778 10.0833H10.8333V9.30556H9.27778V10.0833ZM10.8333 10.8611H4.61111V11.6389H10.8333V10.8611ZM8.5 9.30556H4.61111V10.0833H8.5V9.30556ZM6.16667 7.75H4.61111V8.52778H6.16667V7.75ZM13.1667 0.75H2.27778C2.0715 0.75 1.87367 0.831944 1.72781 0.977806C1.58194 1.12367 1.5 1.3215 1.5 1.52778V13.9722C1.5 14.1785 1.58194 14.3763 1.72781 14.5222C1.87367 14.6681 2.0715 14.75 2.27778 14.75H13.1667C13.3729 14.75 13.5708 14.6681 13.7166 14.5222C13.8625 14.3763 13.9444 14.1785 13.9444 13.9722V1.52778C13.9444 1.3215 13.8625 1.12367 13.7166 0.977806C13.5708 0.831944 13.3729 0.75 13.1667 0.75ZM12.3889 13.1944H3.05556V2.30556H12.3889V13.1944Z" fill="#1785D4"/>
</svg>
