<svg width="28" height="28" viewBox="0 0 28 28" fill="none" xmlns="http://www.w3.org/2000/svg">
<path d="M8.04786e-06 13.9836C0.00820477 6.26682 6.28689 0 14.0082 0C21.7377 0 28.0082 6.2914 28 14.041C27.9918 21.7578 21.7131 28.0082 13.9672 28C6.24591 27.9918 -0.00818867 21.7168 8.04786e-06 13.9836ZM26.3607 14.0819C26.3934 7.24985 20.9098 1.70392 14.0738 1.66296C7.21312 1.622 1.68853 7.1024 1.64755 13.9754C1.61476 20.7583 7.09017 26.3043 13.8853 26.3452C20.7541 26.3944 26.3279 20.914 26.3607 14.0819Z" fill="#FFFFFF"/>
<path d="M13.8196 25.4605C10.4835 25.3212 7.7294 24.1006 5.48349 21.7413C5.09005 21.3235 5.19661 20.8402 5.28677 20.3979C5.63923 18.7103 6.62284 17.4324 7.99989 16.4411C9.75399 15.1714 11.7458 14.6143 13.9015 14.5898C15.9589 14.5652 17.8769 15.0403 19.6065 16.1626C21.1638 17.1702 22.295 18.5055 22.7212 20.3569C22.8687 20.9959 22.7868 21.5365 22.254 22.0444C19.8606 24.3382 17.0327 25.4687 13.8196 25.4605Z" fill="#FFFFFF"/>
<path d="M13.9918 3.40786C16.8032 3.39967 19.0737 5.66064 19.0901 8.47047C19.0983 11.1083 17.0245 13.5331 14.0327 13.574C11.2131 13.6068 8.92619 11.3131 8.91799 8.48686C8.90979 5.68522 11.1721 3.41605 13.9918 3.40786Z" fill="#FFFFFF"/>
</svg>
